%TF.GenerationSoftware,Altium Limited,Altium Designer,21.3.0 (21)*%
G04 Layer_Physical_Order=2*
G04 Layer_Color=16711680*
%FSLAX45Y45*%
%MOMM*%
%TF.SameCoordinates,FC24DA46-C209-461C-A341-196A143AB96F*%
%TF.FilePolarity,Positive*%
%TF.FileFunction,Copper,L2,Bot,Signal*%
%TF.Part,Single*%
G01*
G75*
%TA.AperFunction,ComponentPad*%
%ADD21C,1.70000*%
%ADD22R,1.70000X1.70000*%
%ADD23R,2.70000X2.70000*%
%ADD24C,2.70000*%
%ADD25R,1.70000X1.70000*%
%TA.AperFunction,ViaPad*%
%ADD26C,1.27000*%
G36*
X26987500Y18859500D02*
X22542500D01*
Y20764500D01*
X26987500D01*
Y18859500D01*
D02*
G37*
%LPC*%
G36*
X25539700Y20688033D02*
Y20612100D01*
X25615634D01*
X25609842Y20633714D01*
X25598138Y20653986D01*
X25581586Y20670538D01*
X25561314Y20682242D01*
X25539700Y20688033D01*
D02*
G37*
G36*
X25514301D02*
X25492686Y20682242D01*
X25472414Y20670538D01*
X25455862Y20653986D01*
X25444157Y20633714D01*
X25438367Y20612100D01*
X25514301D01*
Y20688033D01*
D02*
G37*
G36*
X24472900Y20637233D02*
Y20561301D01*
X24548833D01*
X24543042Y20582915D01*
X24531339Y20603186D01*
X24514786Y20619737D01*
X24494514Y20631442D01*
X24472900Y20637233D01*
D02*
G37*
G36*
X24447501D02*
X24425887Y20631442D01*
X24405614Y20619737D01*
X24389062Y20603186D01*
X24377357Y20582915D01*
X24371567Y20561301D01*
X24447501D01*
Y20637233D01*
D02*
G37*
G36*
X25615634Y20586700D02*
X25539700D01*
Y20510767D01*
X25561314Y20516557D01*
X25581586Y20528262D01*
X25598138Y20544814D01*
X25609842Y20565086D01*
X25615634Y20586700D01*
D02*
G37*
G36*
X25514301D02*
X25438367D01*
X25444157Y20565086D01*
X25455862Y20544814D01*
X25472414Y20528262D01*
X25492686Y20516557D01*
X25514301Y20510767D01*
Y20586700D01*
D02*
G37*
G36*
X24548833Y20535899D02*
X24472900D01*
Y20459967D01*
X24494514Y20465758D01*
X24514786Y20477461D01*
X24531339Y20494014D01*
X24543042Y20514285D01*
X24548833Y20535899D01*
D02*
G37*
G36*
X24447501D02*
X24371567D01*
X24377357Y20514285D01*
X24389062Y20494014D01*
X24405614Y20477461D01*
X24425887Y20465758D01*
X24447501Y20459967D01*
Y20535899D01*
D02*
G37*
G36*
X22970399Y20557401D02*
X22749600D01*
Y20336600D01*
X22970399D01*
Y20557401D01*
D02*
G37*
G36*
X23533099Y20383234D02*
Y20307300D01*
X23609033D01*
X23603242Y20328914D01*
X23591537Y20349187D01*
X23574986Y20365738D01*
X23554713Y20377441D01*
X23533099Y20383234D01*
D02*
G37*
G36*
X23507700D02*
X23486086Y20377441D01*
X23465814Y20365738D01*
X23449261Y20349187D01*
X23437558Y20328914D01*
X23431767Y20307300D01*
X23507700D01*
Y20383234D01*
D02*
G37*
G36*
X23609033Y20281900D02*
X23533099D01*
Y20205968D01*
X23554713Y20211758D01*
X23574986Y20223462D01*
X23591537Y20240015D01*
X23603242Y20260286D01*
X23609033Y20281900D01*
D02*
G37*
G36*
X23507700D02*
X23431767D01*
X23437558Y20260286D01*
X23449261Y20240015D01*
X23465814Y20223462D01*
X23486086Y20211758D01*
X23507700Y20205968D01*
Y20281900D01*
D02*
G37*
G36*
X26050797Y20480400D02*
X26019202D01*
X25988214Y20474236D01*
X25959021Y20462144D01*
X25932751Y20444591D01*
X25910410Y20422249D01*
X25892856Y20395978D01*
X25880765Y20366788D01*
X25874600Y20335799D01*
Y20304202D01*
X25880765Y20273213D01*
X25892856Y20244022D01*
X25910410Y20217751D01*
X25932751Y20195409D01*
X25959021Y20177855D01*
X25988214Y20165764D01*
X26019202Y20159599D01*
X26050797D01*
X26081787Y20165764D01*
X26110977Y20177855D01*
X26137250Y20195409D01*
X26159592Y20217751D01*
X26177145Y20244022D01*
X26189236Y20273213D01*
X26195401Y20304202D01*
Y20335799D01*
X26189236Y20366788D01*
X26177145Y20395978D01*
X26159592Y20422249D01*
X26137250Y20444591D01*
X26110977Y20462144D01*
X26081787Y20474236D01*
X26050797Y20480400D01*
D02*
G37*
G36*
X22874535Y20303400D02*
X22845467D01*
X22817387Y20295876D01*
X22792213Y20281342D01*
X22771658Y20260786D01*
X22757124Y20235612D01*
X22749600Y20207533D01*
Y20178465D01*
X22757124Y20150388D01*
X22771658Y20125214D01*
X22792213Y20104659D01*
X22817387Y20090125D01*
X22845467Y20082600D01*
X22874535D01*
X22902612Y20090125D01*
X22927786Y20104659D01*
X22948341Y20125214D01*
X22962875Y20150388D01*
X22970399Y20178465D01*
Y20207533D01*
X22962875Y20235612D01*
X22948341Y20260786D01*
X22927786Y20281342D01*
X22902612Y20295876D01*
X22874535Y20303400D01*
D02*
G37*
G36*
X25668533Y20176401D02*
X25639465D01*
X25611386Y20168877D01*
X25586214Y20154343D01*
X25565659Y20133788D01*
X25551125Y20108614D01*
X25543600Y20080534D01*
Y20051466D01*
X25551125Y20023387D01*
X25565659Y19998213D01*
X25586214Y19977658D01*
X25611386Y19963124D01*
X25639465Y19955600D01*
X25668533D01*
X25696613Y19963124D01*
X25721786Y19977658D01*
X25742343Y19998213D01*
X25756876Y20023387D01*
X25764401Y20051466D01*
Y20080534D01*
X25756876Y20108614D01*
X25742343Y20133788D01*
X25721786Y20154343D01*
X25696613Y20168877D01*
X25668533Y20176401D01*
D02*
G37*
G36*
X24906534D02*
X24877466D01*
X24849387Y20168877D01*
X24824213Y20154343D01*
X24803658Y20133788D01*
X24789124Y20108614D01*
X24781599Y20080534D01*
Y20051466D01*
X24789124Y20023387D01*
X24803658Y19998213D01*
X24824213Y19977658D01*
X24849387Y19963124D01*
X24877466Y19955600D01*
X24906534D01*
X24934613Y19963124D01*
X24959787Y19977658D01*
X24980342Y19998213D01*
X24994876Y20023387D01*
X25002400Y20051466D01*
Y20080534D01*
X24994876Y20108614D01*
X24980342Y20133788D01*
X24959787Y20154343D01*
X24934613Y20168877D01*
X24906534Y20176401D01*
D02*
G37*
G36*
X24144534D02*
X24115466D01*
X24087387Y20168877D01*
X24062213Y20154343D01*
X24041658Y20133788D01*
X24027124Y20108614D01*
X24019600Y20080534D01*
Y20051466D01*
X24027124Y20023387D01*
X24041658Y19998213D01*
X24062213Y19977658D01*
X24087387Y19963124D01*
X24115466Y19955600D01*
X24144534D01*
X24172614Y19963124D01*
X24197787Y19977658D01*
X24218343Y19998213D01*
X24232877Y20023387D01*
X24240401Y20051466D01*
Y20080534D01*
X24232877Y20108614D01*
X24218343Y20133788D01*
X24197787Y20154343D01*
X24172614Y20168877D01*
X24144534Y20176401D01*
D02*
G37*
G36*
X23890533D02*
X23861465D01*
X23833388Y20168877D01*
X23808212Y20154343D01*
X23787659Y20133788D01*
X23773125Y20108614D01*
X23765601Y20080534D01*
Y20051466D01*
X23773125Y20023387D01*
X23787659Y19998213D01*
X23808212Y19977658D01*
X23833388Y19963124D01*
X23861465Y19955600D01*
X23890533D01*
X23918613Y19963124D01*
X23943787Y19977658D01*
X23964342Y19998213D01*
X23978876Y20023387D01*
X23986400Y20051466D01*
Y20080534D01*
X23978876Y20108614D01*
X23964342Y20133788D01*
X23943787Y20154343D01*
X23918613Y20168877D01*
X23890533Y20176401D01*
D02*
G37*
G36*
X23732401D02*
X23511600D01*
Y19955600D01*
X23732401D01*
Y20176401D01*
D02*
G37*
G36*
X24218900Y19951433D02*
Y19875500D01*
X24294833D01*
X24289043Y19897115D01*
X24277338Y19917386D01*
X24260786Y19933939D01*
X24240514Y19945642D01*
X24218900Y19951433D01*
D02*
G37*
G36*
X24193500D02*
X24171886Y19945642D01*
X24151614Y19933939D01*
X24135062Y19917386D01*
X24123358Y19897115D01*
X24117567Y19875500D01*
X24193500D01*
Y19951433D01*
D02*
G37*
G36*
X22874535Y20049400D02*
X22845467D01*
X22817387Y20041876D01*
X22792213Y20027342D01*
X22771658Y20006787D01*
X22757124Y19981613D01*
X22749600Y19953534D01*
Y19924466D01*
X22757124Y19896387D01*
X22771658Y19871213D01*
X22792213Y19850658D01*
X22817387Y19836124D01*
X22845467Y19828600D01*
X22874535D01*
X22902612Y19836124D01*
X22927786Y19850658D01*
X22948341Y19871213D01*
X22962875Y19896387D01*
X22970399Y19924466D01*
Y19953534D01*
X22962875Y19981613D01*
X22948341Y20006787D01*
X22927786Y20027342D01*
X22902612Y20041876D01*
X22874535Y20049400D01*
D02*
G37*
G36*
X26050797Y19972400D02*
X26047699D01*
Y19824699D01*
X26195401D01*
Y19827798D01*
X26189236Y19858788D01*
X26177145Y19887978D01*
X26159592Y19914249D01*
X26137250Y19936591D01*
X26110977Y19954144D01*
X26081787Y19966235D01*
X26050797Y19972400D01*
D02*
G37*
G36*
X25668533Y19922400D02*
X25666699D01*
Y19824699D01*
X25764401D01*
Y19826534D01*
X25756876Y19854613D01*
X25742343Y19879787D01*
X25721786Y19900342D01*
X25696613Y19914876D01*
X25668533Y19922400D01*
D02*
G37*
G36*
X25641299D02*
X25639465D01*
X25611386Y19914876D01*
X25586214Y19900342D01*
X25565659Y19879787D01*
X25551125Y19854613D01*
X25543600Y19826534D01*
Y19824699D01*
X25641299D01*
Y19922400D01*
D02*
G37*
G36*
X26022299Y19972400D02*
X26019202D01*
X25988214Y19966235D01*
X25959021Y19954144D01*
X25932751Y19936591D01*
X25910410Y19914249D01*
X25892856Y19887978D01*
X25880765Y19858788D01*
X25874600Y19827798D01*
Y19824699D01*
X26022299D01*
Y19972400D01*
D02*
G37*
G36*
X24294833Y19850101D02*
X24218900D01*
Y19774167D01*
X24240514Y19779958D01*
X24260786Y19791663D01*
X24277338Y19808214D01*
X24289043Y19828487D01*
X24294833Y19850101D01*
D02*
G37*
G36*
X24193500D02*
X24117567D01*
X24123358Y19828487D01*
X24135062Y19808214D01*
X24151614Y19791663D01*
X24171886Y19779958D01*
X24193500Y19774167D01*
Y19850101D01*
D02*
G37*
G36*
X25764401Y19799300D02*
X25666699D01*
Y19701601D01*
X25668533D01*
X25696613Y19709125D01*
X25721786Y19723659D01*
X25742343Y19744212D01*
X25756876Y19769386D01*
X25764401Y19797466D01*
Y19799300D01*
D02*
G37*
G36*
X25641299D02*
X25543600D01*
Y19797466D01*
X25551125Y19769386D01*
X25565659Y19744212D01*
X25586214Y19723659D01*
X25611386Y19709125D01*
X25639465Y19701601D01*
X25641299D01*
Y19799300D01*
D02*
G37*
G36*
X24906534Y19922400D02*
X24877466D01*
X24849387Y19914876D01*
X24824213Y19900342D01*
X24803658Y19879787D01*
X24789124Y19854613D01*
X24781599Y19826534D01*
Y19797466D01*
X24789124Y19769386D01*
X24803658Y19744212D01*
X24824213Y19723659D01*
X24849387Y19709125D01*
X24877466Y19701601D01*
X24906534D01*
X24934613Y19709125D01*
X24959787Y19723659D01*
X24980342Y19744212D01*
X24994876Y19769386D01*
X25002400Y19797466D01*
Y19826534D01*
X24994876Y19854613D01*
X24980342Y19879787D01*
X24959787Y19900342D01*
X24934613Y19914876D01*
X24906534Y19922400D01*
D02*
G37*
G36*
X23533099Y19773633D02*
Y19697701D01*
X23609033D01*
X23603242Y19719315D01*
X23591537Y19739586D01*
X23574986Y19756139D01*
X23554713Y19767842D01*
X23533099Y19773633D01*
D02*
G37*
G36*
X23507700D02*
X23486086Y19767842D01*
X23465814Y19756139D01*
X23449261Y19739586D01*
X23437558Y19719315D01*
X23431767Y19697701D01*
X23507700D01*
Y19773633D01*
D02*
G37*
G36*
X26195401Y19799300D02*
X26047699D01*
Y19651601D01*
X26050797D01*
X26081787Y19657764D01*
X26110977Y19669855D01*
X26137250Y19687408D01*
X26159592Y19709750D01*
X26177145Y19736021D01*
X26189236Y19765213D01*
X26195401Y19796202D01*
Y19799300D01*
D02*
G37*
G36*
X26022299D02*
X25874600D01*
Y19796202D01*
X25880765Y19765213D01*
X25892856Y19736021D01*
X25910410Y19709750D01*
X25932751Y19687408D01*
X25959021Y19669855D01*
X25988214Y19657764D01*
X26019202Y19651601D01*
X26022299D01*
Y19799300D01*
D02*
G37*
G36*
X23609033Y19672301D02*
X23533099D01*
Y19596367D01*
X23554713Y19602158D01*
X23574986Y19613863D01*
X23591537Y19630414D01*
X23603242Y19650687D01*
X23609033Y19672301D01*
D02*
G37*
G36*
X23507700D02*
X23431767D01*
X23437558Y19650687D01*
X23449261Y19630414D01*
X23465814Y19613863D01*
X23486086Y19602158D01*
X23507700Y19596367D01*
Y19672301D01*
D02*
G37*
G36*
X22874535Y19795399D02*
X22845467D01*
X22817387Y19787875D01*
X22792213Y19773341D01*
X22771658Y19752786D01*
X22757124Y19727612D01*
X22749600Y19699535D01*
Y19670467D01*
X22757124Y19642387D01*
X22771658Y19617213D01*
X22792213Y19596658D01*
X22817387Y19582124D01*
X22845467Y19574600D01*
X22874535D01*
X22902612Y19582124D01*
X22927786Y19596658D01*
X22948341Y19617213D01*
X22962875Y19642387D01*
X22970399Y19670467D01*
Y19699535D01*
X22962875Y19727612D01*
X22948341Y19752786D01*
X22927786Y19773341D01*
X22902612Y19787875D01*
X22874535Y19795399D01*
D02*
G37*
G36*
X25764401Y19668401D02*
X25543600D01*
Y19447600D01*
X25764401D01*
Y19668401D01*
D02*
G37*
G36*
X25002400D02*
X24781599D01*
Y19447600D01*
X25002400D01*
Y19668401D01*
D02*
G37*
G36*
X22874535Y19541400D02*
X22872701D01*
Y19443700D01*
X22970399D01*
Y19445534D01*
X22962875Y19473613D01*
X22948341Y19498787D01*
X22927786Y19519342D01*
X22902612Y19533876D01*
X22874535Y19541400D01*
D02*
G37*
G36*
X22847301D02*
X22845467D01*
X22817387Y19533876D01*
X22792213Y19519342D01*
X22771658Y19498787D01*
X22757124Y19473613D01*
X22749600Y19445534D01*
Y19443700D01*
X22847301D01*
Y19541400D01*
D02*
G37*
G36*
X22970399Y19418300D02*
X22872701D01*
Y19320599D01*
X22874535D01*
X22902612Y19328123D01*
X22927786Y19342657D01*
X22948341Y19363213D01*
X22962875Y19388387D01*
X22970399Y19416466D01*
Y19418300D01*
D02*
G37*
G36*
X22847301D02*
X22749600D01*
Y19416466D01*
X22757124Y19388387D01*
X22771658Y19363213D01*
X22792213Y19342657D01*
X22817387Y19328123D01*
X22845467Y19320599D01*
X22847301D01*
Y19418300D01*
D02*
G37*
G36*
X26195401Y19464400D02*
X25874600D01*
Y19143600D01*
X26195401D01*
Y19464400D01*
D02*
G37*
G36*
X24345900Y19189433D02*
Y19113499D01*
X24421832D01*
X24416042Y19135114D01*
X24404338Y19155386D01*
X24387785Y19171938D01*
X24367514Y19183643D01*
X24345900Y19189433D01*
D02*
G37*
G36*
X24320500D02*
X24298886Y19183643D01*
X24278613Y19171938D01*
X24262062Y19155386D01*
X24250359Y19135114D01*
X24244566Y19113499D01*
X24320500D01*
Y19189433D01*
D02*
G37*
G36*
X22874535Y19287399D02*
X22845467D01*
X22817387Y19279877D01*
X22792213Y19265343D01*
X22771658Y19244788D01*
X22757124Y19219614D01*
X22749600Y19191534D01*
Y19162466D01*
X22757124Y19134387D01*
X22771658Y19109213D01*
X22792213Y19088658D01*
X22817387Y19074124D01*
X22845467Y19066600D01*
X22874535D01*
X22902612Y19074124D01*
X22927786Y19088658D01*
X22948341Y19109213D01*
X22962875Y19134387D01*
X22970399Y19162466D01*
Y19191534D01*
X22962875Y19219614D01*
X22948341Y19244788D01*
X22927786Y19265343D01*
X22902612Y19279877D01*
X22874535Y19287399D01*
D02*
G37*
G36*
X25539700Y19113232D02*
Y19037300D01*
X25615634D01*
X25609842Y19058914D01*
X25598138Y19079185D01*
X25581586Y19095738D01*
X25561314Y19107442D01*
X25539700Y19113232D01*
D02*
G37*
G36*
X25514301D02*
X25492686Y19107442D01*
X25472414Y19095738D01*
X25455862Y19079185D01*
X25444157Y19058914D01*
X25438367Y19037300D01*
X25514301D01*
Y19113232D01*
D02*
G37*
G36*
X24421832Y19088100D02*
X24345900D01*
Y19012167D01*
X24367514Y19017958D01*
X24387785Y19029662D01*
X24404338Y19046214D01*
X24416042Y19066486D01*
X24421832Y19088100D01*
D02*
G37*
G36*
X24320500D02*
X24244566D01*
X24250359Y19066486D01*
X24262062Y19046214D01*
X24278613Y19029662D01*
X24298886Y19017958D01*
X24320500Y19012167D01*
Y19088100D01*
D02*
G37*
G36*
X25615634Y19011900D02*
X25539700D01*
Y18935966D01*
X25561314Y18941759D01*
X25581586Y18953462D01*
X25598138Y18970013D01*
X25609842Y18990286D01*
X25615634Y19011900D01*
D02*
G37*
G36*
X25514301D02*
X25438367D01*
X25444157Y18990286D01*
X25455862Y18970013D01*
X25472414Y18953462D01*
X25492686Y18941759D01*
X25514301Y18935966D01*
Y19011900D01*
D02*
G37*
%LPD*%
D21*
X22860001Y19177000D02*
D03*
Y19431000D02*
D03*
Y19685001D02*
D03*
Y19939000D02*
D03*
Y20192999D02*
D03*
X25654001Y20066000D02*
D03*
Y19812000D02*
D03*
X24130000Y20066000D02*
D03*
X23875999D02*
D03*
X24892000Y19812000D02*
D03*
Y20066000D02*
D03*
D22*
X22860001Y20447000D02*
D03*
X23622000Y20066000D02*
D03*
D23*
X26035001Y19303999D02*
D03*
D24*
Y19812000D02*
D03*
Y20320000D02*
D03*
D25*
X25654001Y19558000D02*
D03*
X24892000D02*
D03*
D26*
X23520399Y19685001D02*
D03*
Y20294600D02*
D03*
X24206200Y19862801D02*
D03*
X24333200Y19100800D02*
D03*
X24460201Y20548599D02*
D03*
X25527000Y19024600D02*
D03*
Y20599400D02*
D03*
%TF.MD5,290fba7192b2e5ec2cb612e9553f64f0*%
M02*
