%TF.GenerationSoftware,Altium Limited,Altium Designer,21.3.0 (21)*%
G04 Layer_Color=0*
%FSLAX45Y45*%
%MOMM*%
%TF.SameCoordinates,FC24DA46-C209-461C-A341-196A143AB96F*%
%TF.FilePolarity,Positive*%
%TF.FileFunction,Plated,1,2,PTH,Drill*%
%TF.Part,Single*%
G01*
G75*
%TA.AperFunction,ComponentDrill*%
%ADD48C,1.10000*%
%ADD49C,1.70000*%
%ADD50C,1.20000*%
%ADD51C,1.20000*%
%TA.AperFunction,ViaDrill,NotFilled*%
%ADD52C,0.71120*%
D48*
X22860001Y19177000D02*
D03*
Y19431000D02*
D03*
Y19685001D02*
D03*
Y19939000D02*
D03*
Y20447000D02*
D03*
Y20192999D02*
D03*
D49*
X26035001Y19303999D02*
D03*
Y19812000D02*
D03*
Y20320000D02*
D03*
D50*
X25654001Y20066000D02*
D03*
Y19812000D02*
D03*
Y19558000D02*
D03*
X24892000D02*
D03*
Y19812000D02*
D03*
Y20066000D02*
D03*
D51*
X24130000D02*
D03*
X23875999D02*
D03*
X23622000D02*
D03*
D52*
X23520399Y19685001D02*
D03*
Y20294600D02*
D03*
X24206200Y19862801D02*
D03*
X24333200Y19100800D02*
D03*
X24460201Y20548599D02*
D03*
X25527000Y19024600D02*
D03*
Y20599400D02*
D03*
%TF.MD5,0be46e7224f2928c4bff5aac8fff2c2c*%
M02*
