%TF.GenerationSoftware,Altium Limited,Altium Designer,21.3.0 (21)*%
G04 Layer_Color=8421504*
%FSLAX45Y45*%
%MOMM*%
%TF.SameCoordinates,FC24DA46-C209-461C-A341-196A143AB96F*%
%TF.FilePolarity,Positive*%
%TF.FileFunction,Paste,Top*%
%TF.Part,Single*%
G01*
G75*
%TA.AperFunction,SMDPad,CuDef*%
G04:AMPARAMS|DCode=10|XSize=1.27mm|YSize=0.6mm|CornerRadius=0.06mm|HoleSize=0mm|Usage=FLASHONLY|Rotation=0.000|XOffset=0mm|YOffset=0mm|HoleType=Round|Shape=RoundedRectangle|*
%AMROUNDEDRECTD10*
21,1,1.27000,0.48000,0,0,0.0*
21,1,1.15000,0.60000,0,0,0.0*
1,1,0.12000,0.57500,-0.24000*
1,1,0.12000,-0.57500,-0.24000*
1,1,0.12000,-0.57500,0.24000*
1,1,0.12000,0.57500,0.24000*
%
%ADD10ROUNDEDRECTD10*%
G04:AMPARAMS|DCode=11|XSize=0.6mm|YSize=1.778mm|CornerRadius=0.06mm|HoleSize=0mm|Usage=FLASHONLY|Rotation=90.000|XOffset=0mm|YOffset=0mm|HoleType=Round|Shape=RoundedRectangle|*
%AMROUNDEDRECTD11*
21,1,0.60000,1.65800,0,0,90.0*
21,1,0.48000,1.77800,0,0,90.0*
1,1,0.12000,0.82900,0.24000*
1,1,0.12000,0.82900,-0.24000*
1,1,0.12000,-0.82900,-0.24000*
1,1,0.12000,-0.82900,0.24000*
%
%ADD11ROUNDEDRECTD11*%
G04:AMPARAMS|DCode=12|XSize=2.286mm|YSize=2.032mm|CornerRadius=0.2032mm|HoleSize=0mm|Usage=FLASHONLY|Rotation=0.000|XOffset=0mm|YOffset=0mm|HoleType=Round|Shape=RoundedRectangle|*
%AMROUNDEDRECTD12*
21,1,2.28600,1.62560,0,0,0.0*
21,1,1.87960,2.03200,0,0,0.0*
1,1,0.40640,0.93980,-0.81280*
1,1,0.40640,-0.93980,-0.81280*
1,1,0.40640,-0.93980,0.81280*
1,1,0.40640,0.93980,0.81280*
%
%ADD12ROUNDEDRECTD12*%
G04:AMPARAMS|DCode=13|XSize=1.8mm|YSize=1.1mm|CornerRadius=0.11mm|HoleSize=0mm|Usage=FLASHONLY|Rotation=0.000|XOffset=0mm|YOffset=0mm|HoleType=Round|Shape=RoundedRectangle|*
%AMROUNDEDRECTD13*
21,1,1.80000,0.88000,0,0,0.0*
21,1,1.58000,1.10000,0,0,0.0*
1,1,0.22000,0.79000,-0.44000*
1,1,0.22000,-0.79000,-0.44000*
1,1,0.22000,-0.79000,0.44000*
1,1,0.22000,0.79000,0.44000*
%
%ADD13ROUNDEDRECTD13*%
G04:AMPARAMS|DCode=14|XSize=1.4mm|YSize=0.8mm|CornerRadius=0.08mm|HoleSize=0mm|Usage=FLASHONLY|Rotation=90.000|XOffset=0mm|YOffset=0mm|HoleType=Round|Shape=RoundedRectangle|*
%AMROUNDEDRECTD14*
21,1,1.40000,0.64000,0,0,90.0*
21,1,1.24000,0.80000,0,0,90.0*
1,1,0.16000,0.32000,0.62000*
1,1,0.16000,0.32000,-0.62000*
1,1,0.16000,-0.32000,-0.62000*
1,1,0.16000,-0.32000,0.62000*
%
%ADD14ROUNDEDRECTD14*%
G04:AMPARAMS|DCode=15|XSize=1.4mm|YSize=1.2mm|CornerRadius=0.12mm|HoleSize=0mm|Usage=FLASHONLY|Rotation=0.000|XOffset=0mm|YOffset=0mm|HoleType=Round|Shape=RoundedRectangle|*
%AMROUNDEDRECTD15*
21,1,1.40000,0.96000,0,0,0.0*
21,1,1.16000,1.20000,0,0,0.0*
1,1,0.24000,0.58000,-0.48000*
1,1,0.24000,-0.58000,-0.48000*
1,1,0.24000,-0.58000,0.48000*
1,1,0.24000,0.58000,0.48000*
%
%ADD15ROUNDEDRECTD15*%
G04:AMPARAMS|DCode=16|XSize=1.4mm|YSize=1.2mm|CornerRadius=0.12mm|HoleSize=0mm|Usage=FLASHONLY|Rotation=270.000|XOffset=0mm|YOffset=0mm|HoleType=Round|Shape=RoundedRectangle|*
%AMROUNDEDRECTD16*
21,1,1.40000,0.96000,0,0,270.0*
21,1,1.16000,1.20000,0,0,270.0*
1,1,0.24000,-0.48000,-0.58000*
1,1,0.24000,-0.48000,0.58000*
1,1,0.24000,0.48000,0.58000*
1,1,0.24000,0.48000,-0.58000*
%
%ADD16ROUNDEDRECTD16*%
G04:AMPARAMS|DCode=17|XSize=1.4mm|YSize=0.8mm|CornerRadius=0.08mm|HoleSize=0mm|Usage=FLASHONLY|Rotation=0.000|XOffset=0mm|YOffset=0mm|HoleType=Round|Shape=RoundedRectangle|*
%AMROUNDEDRECTD17*
21,1,1.40000,0.64000,0,0,0.0*
21,1,1.24000,0.80000,0,0,0.0*
1,1,0.16000,0.62000,-0.32000*
1,1,0.16000,-0.62000,-0.32000*
1,1,0.16000,-0.62000,0.32000*
1,1,0.16000,0.62000,0.32000*
%
%ADD17ROUNDEDRECTD17*%
D10*
X23761000Y20542000D02*
D03*
Y20352000D02*
D03*
X23991000Y20447000D02*
D03*
D11*
X23603500Y19494501D02*
D03*
Y19367500D02*
D03*
Y19240500D02*
D03*
Y19113499D02*
D03*
X24148500Y19494501D02*
D03*
Y19367500D02*
D03*
Y19240500D02*
D03*
Y19113499D02*
D03*
D12*
X25273000Y19367500D02*
D03*
Y18986501D02*
D03*
Y20637500D02*
D03*
Y20256500D02*
D03*
Y19621500D02*
D03*
Y20002499D02*
D03*
D13*
X24511000Y19967000D02*
D03*
Y19657001D02*
D03*
D14*
X23141000Y20192999D02*
D03*
X23341000D02*
D03*
Y20447000D02*
D03*
X23141000D02*
D03*
X23341000Y19939000D02*
D03*
X23141000D02*
D03*
X23341000Y19685001D02*
D03*
X23141000D02*
D03*
D15*
X24892000Y19087000D02*
D03*
Y19267000D02*
D03*
Y20357001D02*
D03*
Y20537000D02*
D03*
D16*
X23150999Y19177000D02*
D03*
X23331000D02*
D03*
X24220000Y19685001D02*
D03*
X24039999D02*
D03*
D17*
X24638000Y20547000D02*
D03*
Y20347000D02*
D03*
Y19277000D02*
D03*
Y19077000D02*
D03*
%TF.MD5,6980c6f16093fc4148858241f15b8f3a*%
M02*
