%TF.GenerationSoftware,Altium Limited,Altium Designer,21.3.0 (21)*%
G04 Layer_Color=32896*
%FSLAX45Y45*%
%MOMM*%
%TF.SameCoordinates,FC24DA46-C209-461C-A341-196A143AB96F*%
%TF.FilePolarity,Positive*%
%TF.FileFunction,Legend,Bot*%
%TF.Part,Single*%
G01*
G75*
%TA.AperFunction,NonConductor*%
%ADD27C,0.20000*%
%ADD28C,0.20320*%
D27*
X22733000Y19050000D02*
Y20574001D01*
Y19050000D02*
X23241000D01*
X22733000Y20574001D02*
X23241000D01*
Y19050000D02*
Y20574001D01*
X23367999Y20447000D02*
X24384000D01*
X24511000D02*
X25400000D01*
X24511000Y19126199D02*
X25400000D01*
Y20447000D01*
X25527000Y19126199D02*
Y20497800D01*
Y19126199D02*
X26466800D01*
X25527000Y20497800D02*
X26466800D01*
Y19126199D02*
Y20497800D01*
X23367999Y19126199D02*
X24206200D01*
X23367999D02*
Y20447000D01*
X24206200Y19126199D02*
X24384000Y19303999D01*
Y20447000D01*
X24511000Y19126199D02*
Y20447000D01*
D28*
X24980896Y20758377D02*
X25006288D01*
X24993591D01*
Y20694897D01*
X25006288Y20682202D01*
X25018983D01*
X25031679Y20694897D01*
X24904721Y20682202D02*
X24955504D01*
X24904721Y20732985D01*
Y20745682D01*
X24917416Y20758377D01*
X24942809D01*
X24955504Y20745682D01*
X25355424Y20618199D02*
X25304642D01*
X25330032D01*
Y20542023D01*
X25241161D02*
X25266553D01*
X25279250Y20554720D01*
Y20580112D01*
X25266553Y20592807D01*
X25241161D01*
X25228465Y20580112D01*
Y20567415D01*
X25279250D01*
X25203075Y20592807D02*
Y20542023D01*
Y20567415D01*
X25190378Y20580112D01*
X25177682Y20592807D01*
X25164986D01*
X25126898Y20542023D02*
Y20592807D01*
X25114203D01*
X25101508Y20580112D01*
Y20542023D01*
Y20580112D01*
X25088811Y20592807D01*
X25076115Y20580112D01*
Y20542023D01*
X25050723D02*
X25025331D01*
X25038026D01*
Y20592807D01*
X25050723D01*
X24987244Y20542023D02*
Y20592807D01*
X24949156D01*
X24936459Y20580112D01*
Y20542023D01*
X24898372Y20592807D02*
X24872980D01*
X24860284Y20580112D01*
Y20542023D01*
X24898372D01*
X24911069Y20554720D01*
X24898372Y20567415D01*
X24860284D01*
X24822197Y20605502D02*
Y20592807D01*
X24834892D01*
X24809502D01*
X24822197D01*
Y20554720D01*
X24809502Y20542023D01*
X24771413D02*
X24746022D01*
X24758717D01*
Y20592807D01*
X24771413D01*
X24695238Y20542023D02*
X24669846D01*
X24657150Y20554720D01*
Y20580112D01*
X24669846Y20592807D01*
X24695238D01*
X24707935Y20580112D01*
Y20554720D01*
X24695238Y20542023D01*
X24631760D02*
Y20592807D01*
X24593671D01*
X24580975Y20580112D01*
Y20542023D01*
X23037782Y20764488D02*
X22987000Y20688312D01*
Y20764488D02*
X23037782Y20688312D01*
X22961607D02*
X22936217D01*
X22948912D01*
Y20764488D01*
X22961607Y20751791D01*
X23875999Y20758377D02*
X23901392D01*
X23888696D01*
Y20694897D01*
X23901392Y20682202D01*
X23914088D01*
X23926784Y20694897D01*
X23850607Y20682202D02*
X23825217D01*
X23837912D01*
Y20758377D01*
X23850607Y20745682D01*
X24339400Y20618199D02*
X24288617D01*
X24314008D01*
Y20542023D01*
X24263225Y20618199D02*
X24212440Y20542023D01*
Y20618199D02*
X24263225Y20542023D01*
X24187048D02*
X24136266Y20592807D01*
X24110873Y20542023D02*
Y20618199D01*
X24072786D01*
X24060091Y20605502D01*
Y20580112D01*
X24072786Y20567415D01*
X24110873D01*
X24085481D02*
X24060091Y20542023D01*
X24034698Y20618199D02*
X23983916Y20542023D01*
Y20618199D02*
X24034698Y20542023D01*
X23958524Y20580112D02*
X23907739D01*
X23831564Y20605502D02*
X23844260Y20618199D01*
X23869652D01*
X23882349Y20605502D01*
Y20554720D01*
X23869652Y20542023D01*
X23844260D01*
X23831564Y20554720D01*
X23793477Y20542023D02*
X23768085D01*
X23755389Y20554720D01*
Y20580112D01*
X23768085Y20592807D01*
X23793477D01*
X23806174Y20580112D01*
Y20554720D01*
X23793477Y20542023D01*
X23729997D02*
Y20592807D01*
X23691908D01*
X23679214Y20580112D01*
Y20542023D01*
X23641125Y20605502D02*
Y20592807D01*
X23653822D01*
X23628430D01*
X23641125D01*
Y20554720D01*
X23628430Y20542023D01*
X23590343Y20592807D02*
Y20542023D01*
Y20567415D01*
X23577647Y20580112D01*
X23564951Y20592807D01*
X23552255D01*
X23501471Y20542023D02*
X23476079D01*
X23463383Y20554720D01*
Y20580112D01*
X23476079Y20592807D01*
X23501471D01*
X23514166Y20580112D01*
Y20554720D01*
X23501471Y20542023D01*
X23437991D02*
X23412601D01*
X23425296D01*
Y20618199D01*
X23437991D01*
X26111160Y20758377D02*
X26136551D01*
X26123856D01*
Y20694897D01*
X26136551Y20682202D01*
X26149246D01*
X26161942Y20694897D01*
X26085767Y20745682D02*
X26073071Y20758377D01*
X26047678D01*
X26034982Y20745682D01*
Y20732985D01*
X26047678Y20720290D01*
X26060376D01*
X26047678D01*
X26034982Y20707594D01*
Y20694897D01*
X26047678Y20682202D01*
X26073071D01*
X26085767Y20694897D01*
X26009592Y20682202D02*
X25958807Y20732985D01*
X25933417Y20758377D02*
X25882632Y20682202D01*
Y20758377D02*
X25933417Y20682202D01*
X25857242Y20745682D02*
X25844547Y20758377D01*
X25819153D01*
X25806458Y20745682D01*
Y20732985D01*
X25819153Y20720290D01*
X25831848D01*
X25819153D01*
X25806458Y20707594D01*
Y20694897D01*
X25819153Y20682202D01*
X25844547D01*
X25857242Y20694897D01*
X26180984Y20542023D02*
Y20618199D01*
X26142899D01*
X26130203Y20605502D01*
Y20580112D01*
X26142899Y20567415D01*
X26180984D01*
X26104810Y20542023D02*
X26079419D01*
X26092114D01*
Y20592807D01*
X26104810D01*
X26041330Y20542023D02*
Y20592807D01*
X26003244D01*
X25990549Y20580112D01*
Y20542023D01*
X25952460D02*
X25927069D01*
X25914374Y20554720D01*
Y20580112D01*
X25927069Y20592807D01*
X25952460D01*
X25965155Y20580112D01*
Y20554720D01*
X25952460Y20542023D01*
X25888980Y20592807D02*
Y20554720D01*
X25876285Y20542023D01*
X25838196D01*
Y20592807D01*
X25800110Y20605502D02*
Y20592807D01*
X25812805D01*
X25787415D01*
X25800110D01*
Y20554720D01*
X25787415Y20542023D01*
X23042880Y19900912D02*
Y19977087D01*
X23004791D01*
X22992097Y19964392D01*
Y19939000D01*
X23004791Y19926305D01*
X23042880D01*
X23017488D02*
X22992097Y19900912D01*
X23042880Y19723088D02*
Y19646912D01*
X23004791D01*
X22992097Y19659608D01*
Y19710393D01*
X23004791Y19723088D01*
X23042880D01*
X23119080Y20231088D02*
Y20154912D01*
X23080992D01*
X23068297Y20167609D01*
Y20218391D01*
X23080992Y20231088D01*
X23119080D01*
X22992120D02*
X23042905D01*
Y20154912D01*
X22992120D01*
X23042905Y20192999D02*
X23017513D01*
X23144498Y19456392D02*
X23157191Y19469089D01*
X23182584D01*
X23195280Y19456392D01*
Y19405608D01*
X23182584Y19392912D01*
X23157191D01*
X23144498Y19405608D01*
Y19431000D01*
X23169888D01*
X23119106Y19392912D02*
Y19469089D01*
X23068321Y19392912D01*
Y19469089D01*
X23042929D02*
Y19392912D01*
X23004842D01*
X22992146Y19405608D01*
Y19456392D01*
X23004842Y19469089D01*
X23042929D01*
X23195280Y19202393D02*
X23182584Y19215088D01*
X23157191D01*
X23144498Y19202393D01*
Y19189696D01*
X23157191Y19177000D01*
X23169888D01*
X23157191D01*
X23144498Y19164304D01*
Y19151608D01*
X23157191Y19138911D01*
X23182584D01*
X23195280Y19151608D01*
X23119106Y19215088D02*
Y19164304D01*
X23093713Y19138911D01*
X23068321Y19164304D01*
Y19215088D01*
X23042929Y19202393D02*
X23030232Y19215088D01*
X23004842D01*
X22992146Y19202393D01*
Y19189696D01*
X23004842Y19177000D01*
X23017537D01*
X23004842D01*
X22992146Y19164304D01*
Y19151608D01*
X23004842Y19138911D01*
X23030232D01*
X23042929Y19151608D01*
X25328880Y19316711D02*
X25303488D01*
X25316183D01*
Y19392888D01*
X25328880Y19380193D01*
X25265401Y19354800D02*
X25214616D01*
X25138441Y19316711D02*
X25189224D01*
X25138441Y19367496D01*
Y19380193D01*
X25151137Y19392888D01*
X25176529D01*
X25189224Y19380193D01*
X25036874Y19392888D02*
Y19316711D01*
X24998787D01*
X24986092Y19329408D01*
Y19380193D01*
X24998787Y19392888D01*
X25036874D01*
X24922610Y19316711D02*
X24948003D01*
X24960699Y19329408D01*
Y19354800D01*
X24948003Y19367496D01*
X24922610D01*
X24909917Y19354800D01*
Y19342104D01*
X24960699D01*
X24871828Y19316711D02*
Y19380193D01*
Y19354800D01*
X24884525D01*
X24859132D01*
X24871828D01*
Y19380193D01*
X24859132Y19392888D01*
X24808348Y19367496D02*
X24782957D01*
X24770261Y19354800D01*
Y19316711D01*
X24808348D01*
X24821043Y19329408D01*
X24808348Y19342104D01*
X24770261D01*
X24744868Y19367496D02*
Y19329408D01*
X24732173Y19316711D01*
X24694086D01*
Y19367496D01*
X24668694Y19316711D02*
X24643301D01*
X24655998D01*
Y19392888D01*
X24668694D01*
X24592519Y19380193D02*
Y19367496D01*
X24605214D01*
X24579822D01*
X24592519D01*
Y19329408D01*
X24579822Y19316711D01*
X25278098Y20205711D02*
X25328880D01*
X25278098Y20256496D01*
Y20269193D01*
X25290791Y20281888D01*
X25316183D01*
X25328880Y20269193D01*
X25252705Y20243800D02*
X25201921D01*
X25176529Y20269193D02*
X25163834Y20281888D01*
X25138441D01*
X25125746Y20269193D01*
Y20256496D01*
X25138441Y20243800D01*
X25151137D01*
X25138441D01*
X25125746Y20231104D01*
Y20218408D01*
X25138441Y20205711D01*
X25163834D01*
X25176529Y20218408D01*
X24986092Y20281888D02*
X25011482D01*
X25024179Y20269193D01*
Y20218408D01*
X25011482Y20205711D01*
X24986092D01*
X24973395Y20218408D01*
Y20269193D01*
X24986092Y20281888D01*
X24897220D02*
X24948003D01*
Y20243800D01*
X24922610D01*
X24948003D01*
Y20205711D01*
X24821043Y20281888D02*
X24871828D01*
Y20243800D01*
X24846436D01*
X24871828D01*
Y20205711D01*
X25328880Y20332712D02*
X25303488D01*
X25316183D01*
Y20408888D01*
X25328880Y20396191D01*
X25265401Y20370799D02*
X25214616D01*
X25138441Y20332712D02*
X25189224D01*
X25138441Y20383496D01*
Y20396191D01*
X25151137Y20408888D01*
X25176529D01*
X25189224Y20396191D01*
X24998787Y20408888D02*
X25024179D01*
X25036874Y20396191D01*
Y20345409D01*
X25024179Y20332712D01*
X24998787D01*
X24986092Y20345409D01*
Y20396191D01*
X24998787Y20408888D01*
X24960699Y20332712D02*
Y20408888D01*
X24909917Y20332712D01*
Y20408888D01*
X26370297Y19837392D02*
X26382993Y19850089D01*
X26408383D01*
X26421078Y19837392D01*
Y19786607D01*
X26408383Y19773912D01*
X26382993D01*
X26370297Y19786607D01*
Y19812000D01*
X26395688D01*
X26344904Y19773912D02*
Y19850089D01*
X26294122Y19773912D01*
Y19850089D01*
X26268729D02*
Y19773912D01*
X26230640D01*
X26217947Y19786607D01*
Y19837392D01*
X26230640Y19850089D01*
X26268729D01*
X26421078Y19519913D02*
Y19570695D01*
X26395688Y19596088D01*
X26370297Y19570695D01*
Y19519913D01*
Y19558000D01*
X26421078D01*
Y20104088D02*
Y20027911D01*
X26382993D01*
X26370297Y20040608D01*
Y20053304D01*
X26382993Y20066000D01*
X26421078D01*
X26382993D01*
X26370297Y20078696D01*
Y20091393D01*
X26382993Y20104088D01*
X26421078D01*
X24287497Y19316711D02*
X24338280D01*
X24287497Y19367496D01*
Y19380193D01*
X24300192Y19392888D01*
X24325584D01*
X24338280Y19380193D01*
X24262105Y19354800D02*
X24211320D01*
X24185928Y19380193D02*
X24173233Y19392888D01*
X24147841D01*
X24135146Y19380193D01*
Y19367496D01*
X24147841Y19354800D01*
X24160538D01*
X24147841D01*
X24135146Y19342104D01*
Y19329408D01*
X24147841Y19316711D01*
X24173233D01*
X24185928Y19329408D01*
X24033578Y19392888D02*
Y19316711D01*
X23995491D01*
X23982796Y19329408D01*
Y19380193D01*
X23995491Y19392888D01*
X24033578D01*
X23919315Y19316711D02*
X23944707D01*
X23957404Y19329408D01*
Y19354800D01*
X23944707Y19367496D01*
X23919315D01*
X23906619Y19354800D01*
Y19342104D01*
X23957404D01*
X23868532Y19316711D02*
Y19380193D01*
Y19354800D01*
X23881229D01*
X23855836D01*
X23868532D01*
Y19380193D01*
X23855836Y19392888D01*
X23805052Y19367496D02*
X23779662D01*
X23766965Y19354800D01*
Y19316711D01*
X23805052D01*
X23817747Y19329408D01*
X23805052Y19342104D01*
X23766965D01*
X23741573Y19367496D02*
Y19329408D01*
X23728877Y19316711D01*
X23690790D01*
Y19367496D01*
X23665398Y19316711D02*
X23640005D01*
X23652702D01*
Y19392888D01*
X23665398D01*
X23589223Y19380193D02*
Y19367496D01*
X23601918D01*
X23576526D01*
X23589223D01*
Y19329408D01*
X23576526Y19316711D01*
X24312880Y20332712D02*
X24287488D01*
X24300185D01*
Y20408888D01*
X24312880Y20396191D01*
X24249400Y20370799D02*
X24198618D01*
X24122443Y20332712D02*
X24173225D01*
X24122443Y20383496D01*
Y20396191D01*
X24135136Y20408888D01*
X24160529D01*
X24173225Y20396191D01*
X24020874Y20408888D02*
Y20332712D01*
X23982787D01*
X23970091Y20345409D01*
Y20396191D01*
X23982787Y20408888D01*
X24020874D01*
X23893916D02*
X23944699D01*
Y20332712D01*
X23893916D01*
X23944699Y20370799D02*
X23919307D01*
X24287497Y20205711D02*
X24338280D01*
X24287497Y20256496D01*
Y20269193D01*
X24300192Y20281888D01*
X24325584D01*
X24338280Y20269193D01*
X24262105Y20243800D02*
X24211320D01*
X24185928Y20269193D02*
X24173233Y20281888D01*
X24147841D01*
X24135146Y20269193D01*
Y20256496D01*
X24147841Y20243800D01*
X24160538D01*
X24147841D01*
X24135146Y20231104D01*
Y20218408D01*
X24147841Y20205711D01*
X24173233D01*
X24185928Y20218408D01*
X24033578Y20281888D02*
Y20205711D01*
X23995491D01*
X23982796Y20218408D01*
Y20269193D01*
X23995491Y20281888D01*
X24033578D01*
%TF.MD5,ae1b8d52d75c7adf41f15398702a02a1*%
M02*
