%TF.GenerationSoftware,Altium Limited,Altium Designer,21.3.0 (21)*%
G04 Layer_Color=2752767*
%FSLAX45Y45*%
%MOMM*%
%TF.SameCoordinates,FC24DA46-C209-461C-A341-196A143AB96F*%
%TF.FilePolarity,Positive*%
%TF.FileFunction,Drawing*%
%TF.Part,Single*%
G01*
G75*
%TA.AperFunction,NonConductor*%
%ADD38C,0.12700*%
%ADD54C,0.16933*%
D38*
X22809200Y19126199D02*
Y19227800D01*
X22910800D01*
Y19126199D01*
X22809200D01*
Y19380200D02*
Y19481799D01*
X22910800D01*
Y19380200D01*
X22809200D01*
Y19634200D02*
Y19735800D01*
X22910800D01*
Y19634200D01*
X22809200D01*
Y19888200D02*
Y19989799D01*
X22910800D01*
Y19888200D01*
X22809200D01*
Y20396201D02*
Y20497800D01*
X22910800D01*
Y20396201D01*
X22809200D01*
Y20142200D02*
Y20243800D01*
X22910800D01*
Y20142200D01*
X22809200D01*
X25654001Y20015199D02*
X25603201Y20116800D01*
X25704800D01*
X25654001Y20015199D01*
Y19761200D02*
X25603201Y19862801D01*
X25704800D01*
X25654001Y19761200D01*
Y19507201D02*
X25603201Y19608800D01*
X25704800D01*
X25654001Y19507201D01*
X24130000Y20015199D02*
X24079201Y20116800D01*
X24180800D01*
X24130000Y20015199D01*
X23875999D02*
X23825200Y20116800D01*
X23926801D01*
X23875999Y20015199D01*
X23622000D02*
X23571201Y20116800D01*
X23672800D01*
X23622000Y20015199D01*
X24892000Y19507201D02*
X24841200Y19608800D01*
X24942799D01*
X24892000Y19507201D01*
Y19761200D02*
X24841200Y19862801D01*
X24942799D01*
X24892000Y19761200D01*
Y20015199D02*
X24841200Y20116800D01*
X24942799D01*
X24892000Y20015199D01*
X23520399Y19634200D02*
X23545799Y19659599D01*
X23571201D01*
X23545799Y19685001D01*
X23571201Y19710400D01*
X23545799D01*
X23520399Y19735800D01*
X23495000Y19710400D01*
X23469600D01*
X23495000Y19685001D01*
X23469600Y19659599D01*
X23495000D01*
X23520399Y19634200D01*
Y20243800D02*
X23545799Y20269200D01*
X23571201D01*
X23545799Y20294600D01*
X23571201Y20320000D01*
X23545799D01*
X23520399Y20345399D01*
X23495000Y20320000D01*
X23469600D01*
X23495000Y20294600D01*
X23469600Y20269200D01*
X23495000D01*
X23520399Y20243800D01*
X24206200Y19812000D02*
X24231599Y19837399D01*
X24257001D01*
X24231599Y19862801D01*
X24257001Y19888200D01*
X24231599D01*
X24206200Y19913600D01*
X24180800Y19888200D01*
X24155400D01*
X24180800Y19862801D01*
X24155400Y19837399D01*
X24180800D01*
X24206200Y19812000D01*
X24333200Y19050000D02*
X24358600Y19075400D01*
X24384000D01*
X24358600Y19100800D01*
X24384000Y19126199D01*
X24358600D01*
X24333200Y19151601D01*
X24307800Y19126199D01*
X24282401D01*
X24307800Y19100800D01*
X24282401Y19075400D01*
X24307800D01*
X24333200Y19050000D01*
X24460201Y20497800D02*
X24485600Y20523199D01*
X24511000D01*
X24485600Y20548599D01*
X24511000Y20574001D01*
X24485600D01*
X24460201Y20599400D01*
X24434801Y20574001D01*
X24409399D01*
X24434801Y20548599D01*
X24409399Y20523199D01*
X24434801D01*
X24460201Y20497800D01*
X25527000Y18973801D02*
X25552400Y18999200D01*
X25577800D01*
X25552400Y19024600D01*
X25577800Y19050000D01*
X25552400D01*
X25527000Y19075400D01*
X25501601Y19050000D01*
X25476199D01*
X25501601Y19024600D01*
X25476199Y18999200D01*
X25501601D01*
X25527000Y18973801D01*
Y20548599D02*
X25552400Y20574001D01*
X25577800D01*
X25552400Y20599400D01*
X25577800Y20624800D01*
X25552400D01*
X25527000Y20650200D01*
X25501601Y20624800D01*
X25476199D01*
X25501601Y20599400D01*
X25476199Y20574001D01*
X25501601D01*
X25527000Y20548599D01*
D54*
X26085800Y19303999D02*
G03*
X26085800Y19303999I-50800J0D01*
G01*
Y19812000D02*
G03*
X26085800Y19812000I-50800J0D01*
G01*
Y20320000D02*
G03*
X26085800Y20320000I-50800J0D01*
G01*
%TF.MD5,bf611aa3427c381fa8ecbcbd75e096ca*%
M02*
